<?xml version="1.0" encoding="UTF-8" standalone="no"?>
<svg
   inkscape:version="1.3.2 (091e20e, 2023-11-25)"
   sodipodi:docname="button_9px_1_orange.svg"
   id="svg80"
   viewBox="0 0 9.0 9.0"
   version="1.1"
   height="9.0"
   width="9.0"
   inkscape:export-filename="../../assets/button_9px_1_orange.png"
   inkscape:export-xdpi="62"
   inkscape:export-ydpi="62"
   xmlns:inkscape="http://www.inkscape.org/namespaces/inkscape"
   xmlns:sodipodi="http://sodipodi.sourceforge.net/DTD/sodipodi-0.dtd"
   xmlns="http://www.w3.org/2000/svg"
   xmlns:svg="http://www.w3.org/2000/svg"
   xmlns:rdf="http://www.w3.org/1999/02/22-rdf-syntax-ns#"
   xmlns:cc="http://creativecommons.org/ns#"
   xmlns:dc="http://purl.org/dc/elements/1.1/">
  <metadata
     id="metadata86">
    <rdf:RDF>
      <cc:Work
         rdf:about="">
        <dc:format>image/svg+xml</dc:format>
        <dc:type
           rdf:resource="http://purl.org/dc/dcmitype/StillImage" />
      </cc:Work>
    </rdf:RDF>
  </metadata>
  <defs
     id="defs84" />
  <sodipodi:namedview
     inkscape:current-layer="svg80"
     inkscape:window-maximized="0"
     inkscape:window-y="25"
     inkscape:window-x="0"
     inkscape:cy="5.0371768"
     inkscape:cx="3.7805449"
     inkscape:zoom="46.950904"
     showgrid="false"
     id="namedview82"
     inkscape:window-height="1132"
     inkscape:window-width="1672"
     inkscape:pageshadow="2"
     inkscape:pageopacity="0"
     guidetolerance="10"
     gridtolerance="10"
     objecttolerance="10"
     borderopacity="1"
     bordercolor="#666666"
     pagecolor="#ffffff"
     inkscape:showpageshadow="2"
     inkscape:pagecheckerboard="0"
     inkscape:deskcolor="#d1d1d1" />
  <path
     d="M 8.9000001,4.5 A 4.4000001,4.4000001 0 0 1 4.5,8.9000001 4.4000001,4.4000001 0 0 1 0.0999999,4.5 4.4000001,4.4000001 0 0 1 4.5,0.0999999 4.4000001,4.4000001 0 0 1 8.9000001,4.5"
     style="fill:#888888"
     id="circle56" />
  <path
     d="M 8.9000001,4.5 A 4.4000001,4.4000001 0 0 1 4.5,8.9000001 4.4000001,4.4000001 0 0 1 0.0999999,4.5 4.4000001,4.4000001 0 0 1 4.5,0.0999999 4.4000001,4.4000001 0 0 1 8.9000001,4.5"
     style="fill:#333333"
     id="circle58" />
  <path
     d="M 8.6999998,4.5 A 4.1999998,4.1999998 0 0 1 4.5,8.6999998 4.1999998,4.1999998 0 0 1 0.30000019,4.5 4.1999998,4.1999998 0 0 1 4.5,0.30000019 4.1999998,4.1999998 0 0 1 8.6999998,4.5"
     style="fill:#ff9900"
     id="circle60" />
  <path
     d="M 8.6999998,4.5 A 4.1999998,4.1999998 0 0 1 4.5,8.6999998 4.1999998,4.1999998 0 0 1 0.30000019,4.5 4.1999998,4.1999998 0 0 1 4.5,0.30000019 4.1999998,4.1999998 0 0 1 8.6999998,4.5"
     style="fill:#666666;fill-opacity:0.5"
     id="circle62" />
  <path
     d="m 8.5,4.5 a 4,4 0 0 1 -4,4 4,4 0 0 1 -4,-4 4,4 0 0 1 4,-4 4,4 0 0 1 4,4"
     style="fill:#ff9900"
     id="circle64" />
  <path
     d="m 8.5,4.5 a 4,4 0 0 1 -4,4 4,4 0 0 1 -4,-4 4,4 0 0 1 4,-4 4,4 0 0 1 4,4"
     style="fill:#777777;fill-opacity:0.4"
     id="circle66" />
  <path
     d="M 8.3,4.5 A 3.8,3.8 0 0 1 4.5,8.3 3.8,3.8 0 0 1 0.70000005,4.5 3.8,3.8 0 0 1 4.5,0.70000005 3.8,3.8 0 0 1 8.3,4.5"
     style="fill:#ff9900"
     id="circle68" />
  <path
     d="M 8.3,4.5 A 3.8,3.8 0 0 1 4.5,8.3 3.8,3.8 0 0 1 0.70000005,4.5 3.8,3.8 0 0 1 4.5,0.70000005 3.8,3.8 0 0 1 8.3,4.5"
     style="fill:#888888;fill-opacity:0.3"
     id="circle70" />
  <path
     d="M 8.0999999,4.5 A 3.5999999,3.5999999 0 0 1 4.5,8.0999999 3.5999999,3.5999999 0 0 1 0.9000001,4.5 3.5999999,3.5999999 0 0 1 4.5,0.9000001 3.5999999,3.5999999 0 0 1 8.0999999,4.5"
     style="fill:#ff9900"
     id="circle72" />
  <path
     d="M 8.0999999,4.5 A 3.5999999,3.5999999 0 0 1 4.5,8.0999999 3.5999999,3.5999999 0 0 1 0.9000001,4.5 3.5999999,3.5999999 0 0 1 4.5,0.9000001 3.5999999,3.5999999 0 0 1 8.0999999,4.5"
     style="fill:#999999;fill-opacity:0.3"
     id="circle74" />
  <path
     d="M 7.8,4.5 A 3.3,3.3 0 0 1 4.5,7.8 3.3,3.3 0 0 1 1.2,4.5 3.3,3.3 0 0 1 4.5,1.2 3.3,3.3 0 0 1 7.8,4.5"
     style="fill:#ff9900;fill-opacity:0.6"
     id="circle76" />
</svg>
